<?xml version="1.0" encoding="UTF-8"?><svg id="Layer_1" xmlns="http://www.w3.org/2000/svg" viewBox="0 0 200.0275 200.02747"><path d="M80.18661,73.2902l-6.22592,6.22592c-.63856.63856-1.69217.63856-2.33073,0L26.532,34.41814c-.63856-.63856-.63856-1.69217,0-2.33073l5.53947-5.53947c.63856-.63856,1.69217-.63856,2.33073,0l7.45513,7.45513c1.03765,1.03765,2.80965.30332,2.80965-1.16537V15.70846c0-.90994.73434-1.64428,1.64428-1.64428h7.83827c.90994,0,1.64428.73434,1.64428,1.64428v31.54463c0,.43102.1756.86205.47892,1.16537l10.37652,10.37652c1.03765,1.03765,2.80965.30332,2.80965-1.16537V1.64428c0-.90994.73434-1.64428,1.64428-1.64428h7.83826c.90994,0,1.64428.73434,1.64428,1.64428l.03192,70.44863c0,.43102-.1756.86205-.47892,1.16537l.0479.03192ZM106.81437,66.64921l49.44014-49.44015c.63855-.63856.63855-1.69217,0-2.33073l-5.53947-5.53947c-.63855-.63856-1.69217-.63856-2.33074,0l-39.98953,39.98952c-1.03765,1.03765-2.80965.30332-2.80965-1.16537v-15.5169c0-.43102.1756-.86205.47892-1.16537l22.31751-22.31751c.63856-.63856.63856-1.69217,0-2.33073l-5.53947-5.53947c-.63856-.63856-1.69217-.63856-2.33073,0l-12.11659,12.10062c-1.03765,1.03765-2.80965.30331-2.80965-1.16536V1.67618c0-.90994-.73434-1.64428-1.64428-1.64428h-7.83826c-.90994,0-1.64428.73434-1.64428,1.64428v63.80765c0,.90994.73434,1.64428,1.64428,1.64428h9.54641c.43102,0,.86205-.1756,1.16537-.47892v.00002ZM66.63327,93.22908L17.14523,43.75701c-.63856-.63856-1.69217-.63856-2.33073,0l-5.53947,5.53947c-.63856.63856-.63856,1.69217,0,2.33073l40.02146,40.02146c1.03765,1.03765.30332,2.80965-1.16537,2.80965h-15.5169c-.43102,0-.86205-.1756-1.16537-.47892l-22.31751-22.31751c-.63856-.63856-1.69217-.63856-2.33073,0l-5.53947,5.53947c-.63856.63856-.63856,1.69217,0,2.33073l12.10062,12.11659c1.03765,1.03765.30331,2.80965-1.16536,2.80965H1.64428c-.90994,0-1.64428.73434-1.64428,1.64428v7.83826c0,.90994.73434,1.64428,1.64428,1.64428h63.80765c.90994,0,1.64428-.73434,1.64428-1.64428v-9.54641c0-.43102-.1756-.86205-.47892-1.16537h.01598ZM126.67343,80.28237c.30332.30332.73434.47892,1.16537.47892l70.52844-.11175c.90995,0,1.64428-.73434,1.64428-1.64428v-7.83827c0-.90994-.73435-1.64428-1.64428-1.64428h-55.98533c-1.46867,0-2.20302-1.77199-1.16536-2.80965l10.37652-10.37652c.30332-.30332.73435-.47892,1.16536-.47892h31.54463c.90995,0,1.64428-.73434,1.64428-1.64428v-7.83826c0-.90994-.73435-1.64428-1.64428-1.64428h-17.12924c-1.46867,0-2.20302-1.77199-1.16536-2.80965l7.45513-7.45513c.63855-.63856.63855-1.69217,0-2.33073l-5.53947-5.53947c-.63855-.63856-1.69217-.63856-2.33074,0l-45.1778,45.1778c-.63856.63856-.63856,1.69217,0,2.33073l6.22592,6.22592.03192-.0479ZM73.35407,119.77703c-.30332-.30332-.73434-.47892-1.16537-.47892l-70.51247.11175c-.90994,0-1.64428.73434-1.64428,1.64428v7.83827c0,.90994.73434,1.64428,1.64428,1.64428h55.96938c1.46867,0,2.20301,1.77199,1.16537,2.80963l-10.37652,10.37652c-.30332.30332-.73434.47892-1.16537.47892H15.70849c-.90994,0-1.64428.73435-1.64428,1.64428v7.83827c0,.90995.73434,1.64428,1.64428,1.64428h17.12925c1.46867,0,2.20301,1.77199,1.16537,2.80963l-7.4711,7.47109c-.63856.63855-.63856,1.69217,0,2.33074l5.53947,5.53947c.63856.63855,1.69217.63855,2.33073,0l45.1778-45.1778c.63856-.63856.63856-1.69217,0-2.33073l-6.22592-6.22592v.03195ZM198.36724,94.45831h-63.95131c-.90995,0-1.64428.73434-1.64428,1.64428v9.40273c0,.43102.1756.86205.47892,1.16537l49.64769,49.64769c.63855.63855,1.69217.63855,2.33074,0l5.53947-5.53947c.63855-.63855.63855-1.69217,0-2.33074l-40.03742-40.03742c-1.03764-1.03765-.30332-2.80965,1.16536-2.80965h15.5169c.43103,0,.86204.1756,1.16536.47892l22.3175,22.31751c.63855.63856,1.69217.63856,2.33074,0l5.53947-5.53947c.63855-.63856.63855-1.69217,0-2.33073l-12.10063-12.10063c-1.03764-1.03765-.30332-2.80965,1.16536-2.80965h10.55213c.90995,0,1.64428-.73434,1.64428-1.64428v-7.83827c0-.90994-.73435-1.64428-1.64428-1.64428l-.01598-.03192ZM93.37277,133.25054l-49.56786,49.56786c-.63856.63855-.63856,1.69217,0,2.33074l5.53947,5.53947c.63856.63855,1.69217.63855,2.33073,0l39.9576-39.9576c1.03765-1.03764,2.80965-.30332,2.80965,1.16536v15.5169c0,.43103-.1756.86204-.47892,1.16536l-22.3175,22.3175c-.63856.63855-.63856,1.69217,0,2.33074l5.53947,5.53947c.63856.63855,1.69217.63855,2.33073,0l12.10063-12.10063c1.03765-1.03764,2.80965-.30332,2.80965,1.16536v10.55213c0,.90995.73434,1.64428,1.64428,1.64428h7.83827c.90994,0,1.64428-.73435,1.64428-1.64428v-63.96727c0-.90995-.73434-1.64428-1.64428-1.64428h-9.40273c-.43102,0-.86205.1756-1.16537.47892l.03192-.00002ZM119.69722,126.60957c-.30332.30332-.47892.73434-.47892,1.16537l.19157,70.5923c0,.90995.73434,1.64428,1.64428,1.64428h7.83826c.90994,0,1.64428-.73435,1.64428-1.64428v-55.98535c0-1.46867,1.77199-2.20302,2.80963-1.16536l10.37652,10.37652c.30332.30332.47892.73435.47892,1.16536v31.54463c0,.90995.73435,1.64428,1.64428,1.64428h7.83827c.90995,0,1.64428-.73435,1.64428-1.64428v-17.11329c0-1.46867,1.77199-2.20302,2.80963-1.16536l7.45513,7.45513c.63855.63855,1.69217.63855,2.33074,0l5.53947-5.53947c.63855-.63855.63855-1.69217,0-2.33074l-45.24164-45.24164c-.63856-.63856-1.69217-.63856-2.33073,0l-6.22592,6.22592.03193.01598Z" fill="#6c813d"/></svg>